{"title":"The Bachelorette Australia - S02E05","uid":15962002,"size":1167299779,"categoryP":"video","categoryS":"tv_shows","magnet":"?xt=urn:btih:2c64e773da566a4cc47577c9dd493c56e126697f&amp;dn=The+Bachelorette+Australia+-+S02E05&amp;tr=udp%3A%2F%2Ftracker.leechers-paradise.org%3A6969&amp;tr=udp%3A%2F%2Fzer0day.ch%3A1337&amp;tr=udp%3A%2F%2Fopen.demonii.com%3A1337&amp;tr=udp%3A%2F%2Ftracker.coppersurfer.tk%3A6969&amp;tr=udp%3A%2F%2Fexodus.desync.com%3A6969","seeders":0,"leechers":2,"uploader":"Bullrout","files":1,"time":1475676460,"description":"The Bachelorette Australia - S02E05\r\n\r\nOne lucky Bachelor and Georgia will be swept up in the glamour of the Big Apple. Later, a battle of medieval proportions breaks out when the Bachelors swap their suits for shining armour.\r\n\r\nComplete name : The Bachelorette Australia - S02E05.mkv\r\nFormat : Matroska\r\nFormat version : Version 4 / Version 2\r\nFile size : 1.09 GiB\r\nDuration : 47 min 19 s\r\nOverall bit rate mode : Variable\r\nOverall bit rate : 3 288 kb/s\r\nEncoded date : UTC 2016-10-05 11:34:02\r\nWriting application : mkvmerge v9.4.2 ('So High') 64bit\r\nWriting library : libebml v1.3.4 + libmatroska v1.4.5\r\n\r\nVideo\r\nID : 2\r\nFormat : AVC\r\nFormat/Info : Advanced Video Codec\r\nFormat profile :   \r\nFormat settings, CABAC : Yes\r\nFormat settings, ReFrames : 3 frames\r\nCodec ID : V_MPEG4/ISO/AVC\r\nDuration : 47 min 19 s\r\nBit rate mode : Variable\r\nBit rate : 2 903 kb/s\r\nMaximum bit rate : 3 000 kb/s\r\nWidth : 1 280 pixels\r\nHeight : 720 pixels\r\nDisplay aspect ratio : 16:9\r\nFrame rate mode : Constant\r\nFrame rate : 25.000 FPS\r\nStandard : PAL\r\nColor space : YUV\r\nChroma subsampling : 4:2:0\r\nBit depth : 8 bits\r\nScan type : Progressive\r\nBits/(Pixel*Frame) : 0.126\r\nStream size : 983 MiB (88%)\r\nWriting library : x264 core 112\r\nDefault : Yes\r\nForced : No\r\nColor range : Limited\r\nColor primaries : BT.709\r\nTransfer characteristics : BT.709\r\nMatrix coefficients : BT.709\r\n\r\nAudio\r\nID : 1\r\nFormat : AC-3\r\nFormat/Info : Audio Coding 3\r\nMode extension : CM (complete main)\r\nFormat settings, Endianness : Big\r\nCodec ID : A_AC3\r\nDuration : 47 min 19 s\r\nBit rate mode : Constant\r\nBit rate : 384 kb/s\r\nChannel(s) : 6 channels\r\nChannel positions : Front: L C R, Side: L R, LFE\r\nSampling rate : 48.0 kHz\r\nFrame rate : 31.250 FPS (1536 spf)\r\nCompression mode : Lossy\r\nStream size : 130 MiB (12%)\r\nDefault : Yes\r\nForced : No","torrent":{"xt":"urn:btih:2c64e773da566a4cc47577c9dd493c56e126697f","amp;dn":"The+Bachelorette+Australia+-+S02E05","amp;tr":["udp%3A%2F%2Ftracker.leechers-paradise.org%3A6969","udp%3A%2F%2Fzer0day.ch%3A1337","udp%3A%2F%2Fopen.demonii.com%3A1337","udp%3A%2F%2Ftracker.coppersurfer.tk%3A6969","udp%3A%2F%2Fexodus.desync.com%3A6969"],"infoHash":"2c64e773da566a4cc47577c9dd493c56e126697f","infoHashBuffer":{"type":"Buffer","data":[44,100,231,115,218,86,106,76,196,117,119,201,221,73,60,86,225,38,105,127]},"announce":[],"urlList":[]}}